<?xml version="1.0" encoding="UTF-8" standalone="no"?>
<!DOCTYPE svg PUBLIC "-//W3C//DTD SVG 1.1//EN" "http://www.w3.org/Graphics/SVG/1.1/DTD/svg11.dtd">
<svg xmlns="http://www.w3.org/2000/svg" version="1.1" viewBox="0.00 0.00 400.00 400.00">
<g stroke-width="2.00" fill="none" stroke-linecap="butt">
<path stroke="#db8d18" vector-effect="non-scaling-stroke" d="
  M 173.41 188.06
  A 2.06 2.06 0.0 0 1 171.71 190.60
  L 132.01 196.43
  A 0.38 0.37 72.9 0 0 131.73 196.97
  L 146.74 226.98
  Q 146.99 227.48 147.55 227.42
  Q 171.22 224.68 195.01 222.11
  Q 197.95 221.79 199.21 223.79
  Q 211.96 244.06 226.25 265.38
  A 0.74 0.74 0.0 0 0 227.29 265.58
  Q 227.34 265.54 227.61 265.13
  Q 262.72 210.18 296.24 154.36
  A 1.39 1.38 48.3 0 0 296.31 153.08
  Q 295.65 151.62 294.63 149.85
  C 280.55 125.37 264.23 100.54 244.80 79.95
  Q 238.16 72.91 229.95 70.33
  C 221.05 67.53 210.69 69.68 205.65 77.83
  C 199.16 88.32 203.42 102.62 208.67 112.74
  C 211.19 117.62 216.95 120.67 216.89 126.60
  Q 216.86 128.93 214.70 133.67
  Q 203.93 157.19 193.30 180.60
  Q 191.99 183.48 188.96 182.55
  L 188.37 182.37
  A 2.31 2.31 0.0 0 1 186.94 179.23
  C 188.57 175.55 191.17 171.24 191.46 167.75
  C 192.86 150.92 190.14 135.45 186.01 119.26
  Q 183.32 108.75 175.83 102.95
  C 164.32 94.05 148.09 95.35 140.93 108.94
  Q 136.57 117.23 138.28 126.64
  C 139.43 132.93 142.93 137.96 146.58 143.73
  C 149.26 147.97 145.12 149.10 141.99 149.35
  Q 120.54 151.06 98.96 151.98
  A 0.36 0.36 0.0 0 0 98.63 152.44
  L 107.87 185.03
  Q 108.01 185.54 108.54 185.53
  L 169.51 184.48
  Q 172.50 184.42 173.22 187.32
  L 173.41 188.06"
/>
<path stroke="#db8d18" vector-effect="non-scaling-stroke" d="
  M 239.41 134.63
  Q 244.38 143.86 251.32 152.37
  Q 252.65 153.99 254.39 152.81
  Q 256.06 151.66 257.87 149.09
  C 261.95 143.30 266.36 136.06 268.43 129.26
  C 269.46 125.88 267.85 123.17 266.02 120.49
  Q 260.31 112.10 253.76 104.35
  Q 251.57 101.76 249.73 100.78
  C 243.73 97.57 236.69 99.38 234.40 106.14
  Q 231.77 113.90 233.54 121.26
  Q 234.62 125.73 239.41 134.63"
/>
<path stroke="#db8d18" vector-effect="non-scaling-stroke" d="
  M 175.23 137.59
  C 171.41 134.17 159.03 130.14 157.35 138.01
  C 153.93 154.04 183.91 145.36 175.23 137.59"
/>
<path stroke="#db8d18" vector-effect="non-scaling-stroke" d="
  M 243.03 161.94
  L 208.56 218.23
  Q 206.48 221.62 209.79 223.81
  L 210.70 224.42
  A 3.07 3.06 -57.8 0 0 215.03 223.43
  L 248.49 167.25
  A 4.17 4.16 -49.9 0 0 248.08 162.41
  L 247.39 161.60
  A 2.71 2.70 40.5 0 0 243.03 161.94"
/>
</g>
<path fill="#fff000" d="
  M 331.98 168.00
  A 134.98 134.98 0.0 0 1 197.00 302.98
  A 134.98 134.98 0.0 0 1 62.02 168.00
  A 134.98 134.98 0.0 0 1 197.00 33.02
  A 134.98 134.98 0.0 0 1 331.98 168.00
  Z
  M 173.41 188.06
  A 2.06 2.06 0.0 0 1 171.71 190.60
  L 132.01 196.43
  A 0.38 0.37 72.9 0 0 131.73 196.97
  L 146.74 226.98
  Q 146.99 227.48 147.55 227.42
  Q 171.22 224.68 195.01 222.11
  Q 197.95 221.79 199.21 223.79
  Q 211.96 244.06 226.25 265.38
  A 0.74 0.74 0.0 0 0 227.29 265.58
  Q 227.34 265.54 227.61 265.13
  Q 262.72 210.18 296.24 154.36
  A 1.39 1.38 48.3 0 0 296.31 153.08
  Q 295.65 151.62 294.63 149.85
  C 280.55 125.37 264.23 100.54 244.80 79.95
  Q 238.16 72.91 229.95 70.33
  C 221.05 67.53 210.69 69.68 205.65 77.83
  C 199.16 88.32 203.42 102.62 208.67 112.74
  C 211.19 117.62 216.95 120.67 216.89 126.60
  Q 216.86 128.93 214.70 133.67
  Q 203.93 157.19 193.30 180.60
  Q 191.99 183.48 188.96 182.55
  L 188.37 182.37
  A 2.31 2.31 0.0 0 1 186.94 179.23
  C 188.57 175.55 191.17 171.24 191.46 167.75
  C 192.86 150.92 190.14 135.45 186.01 119.26
  Q 183.32 108.75 175.83 102.95
  C 164.32 94.05 148.09 95.35 140.93 108.94
  Q 136.57 117.23 138.28 126.64
  C 139.43 132.93 142.93 137.96 146.58 143.73
  C 149.26 147.97 145.12 149.10 141.99 149.35
  Q 120.54 151.06 98.96 151.98
  A 0.36 0.36 0.0 0 0 98.63 152.44
  L 107.87 185.03
  Q 108.01 185.54 108.54 185.53
  L 169.51 184.48
  Q 172.50 184.42 173.22 187.32
  L 173.41 188.06
  Z"
/>
<path fill="#b6292f" d="
  M 173.41 188.06
  L 173.22 187.32
  Q 172.50 184.42 169.51 184.48
  L 108.54 185.53
  Q 108.01 185.54 107.87 185.03
  L 98.63 152.44
  A 0.36 0.36 0.0 0 1 98.96 151.98
  Q 120.54 151.06 141.99 149.35
  C 145.12 149.10 149.26 147.97 146.58 143.73
  C 142.93 137.96 139.43 132.93 138.28 126.64
  Q 136.57 117.23 140.93 108.94
  C 148.09 95.35 164.32 94.05 175.83 102.95
  Q 183.32 108.75 186.01 119.26
  C 190.14 135.45 192.86 150.92 191.46 167.75
  C 191.17 171.24 188.57 175.55 186.94 179.23
  A 2.31 2.31 0.0 0 0 188.37 182.37
  L 188.96 182.55
  Q 191.99 183.48 193.30 180.60
  Q 203.93 157.19 214.70 133.67
  Q 216.86 128.93 216.89 126.60
  C 216.95 120.67 211.19 117.62 208.67 112.74
  C 203.42 102.62 199.16 88.32 205.65 77.83
  C 210.69 69.68 221.05 67.53 229.95 70.33
  Q 238.16 72.91 244.80 79.95
  C 264.23 100.54 280.55 125.37 294.63 149.85
  Q 295.65 151.62 296.31 153.08
  A 1.39 1.38 48.3 0 1 296.24 154.36
  Q 262.72 210.18 227.61 265.13
  Q 227.34 265.54 227.29 265.58
  A 0.74 0.74 0.0 0 1 226.25 265.38
  Q 211.96 244.06 199.21 223.79
  Q 197.95 221.79 195.01 222.11
  Q 171.22 224.68 147.55 227.42
  Q 146.99 227.48 146.74 226.98
  L 131.73 196.97
  A 0.38 0.37 72.9 0 1 132.01 196.43
  L 171.71 190.60
  A 2.06 2.06 0.0 0 0 173.41 188.06
  Z
  M 239.41 134.63
  Q 244.38 143.86 251.32 152.37
  Q 252.65 153.99 254.39 152.81
  Q 256.06 151.66 257.87 149.09
  C 261.95 143.30 266.36 136.06 268.43 129.26
  C 269.46 125.88 267.85 123.17 266.02 120.49
  Q 260.31 112.10 253.76 104.35
  Q 251.57 101.76 249.73 100.78
  C 243.73 97.57 236.69 99.38 234.40 106.14
  Q 231.77 113.90 233.54 121.26
  Q 234.62 125.73 239.41 134.63
  Z
  M 175.23 137.59
  C 171.41 134.17 159.03 130.14 157.35 138.01
  C 153.93 154.04 183.91 145.36 175.23 137.59
  Z
  M 243.03 161.94
  L 208.56 218.23
  Q 206.48 221.62 209.79 223.81
  L 210.70 224.42
  A 3.07 3.06 -57.8 0 0 215.03 223.43
  L 248.49 167.25
  A 4.17 4.16 -49.9 0 0 248.08 162.41
  L 247.39 161.60
  A 2.71 2.70 40.5 0 0 243.03 161.94
  Z"
/>
<path fill="#fff000" d="
  M 233.54 121.26
  Q 231.77 113.90 234.40 106.14
  C 236.69 99.38 243.73 97.57 249.73 100.78
  Q 251.57 101.76 253.76 104.35
  Q 260.31 112.10 266.02 120.49
  C 267.85 123.17 269.46 125.88 268.43 129.26
  C 266.36 136.06 261.95 143.30 257.87 149.09
  Q 256.06 151.66 254.39 152.81
  Q 252.65 153.99 251.32 152.37
  Q 244.38 143.86 239.41 134.63
  Q 234.62 125.73 233.54 121.26
  Z"
/>
<path fill="#fff000" d="
  M 157.35 138.01
  C 159.03 130.14 171.41 134.17 175.23 137.59
  C 183.91 145.36 153.93 154.04 157.35 138.01
  Z"
/>
<path fill="#fff000" d="
  M 208.56 218.23
  L 243.03 161.94
  A 2.71 2.70 40.5 0 1 247.39 161.60
  L 248.08 162.41
  A 4.17 4.16 -49.9 0 1 248.49 167.25
  L 215.03 223.43
  A 3.07 3.06 -57.8 0 1 210.70 224.42
  L 209.79 223.81
  Q 206.48 221.62 208.56 218.23
  Z"
/>
<path fill="#b6292f" d="
  M 109.04 317.35
  C 107.85 317.03 106.41 317.07 105.37 316.72
  Q 95.56 313.42 98.53 302.43
  A 1.06 1.06 0.0 0 1 99.76 301.67
  C 104.29 302.56 108.22 301.46 107.20 295.91
  A 1.02 1.02 0.0 0 0 106.74 295.23
  L 103.10 292.94
  A 1.18 1.12 7.7 0 1 102.62 292.34
  Q 102.01 290.43 100.37 289.34
  Q 99.94 289.05 99.59 289.44
  L 95.34 294.12
  Q 94.95 294.54 94.48 294.23
  C 91.29 292.18 87.16 286.85 83.04 290.55
  Q 78.91 294.27 83.33 299.82
  Q 84.38 301.15 85.68 300.06
  C 90.55 295.99 93.83 303.80 89.56 305.96
  C 88.77 306.36 87.77 306.19 86.83 306.48
  A 0.81 0.81 0.0 0 0 86.28 307.08
  L 85.19 312.12
  Q 85.07 312.66 85.36 313.13
  Q 88.89 318.86 87.33 325.61
  Q 87.18 326.28 86.49 326.27
  L 85.02 326.24
  A 0.66 0.66 0.0 0 1 84.37 325.55
  C 84.59 320.10 84.73 316.38 80.29 312.74
  A 0.38 0.37 -50.2 0 1 80.25 312.20
  Q 82.91 309.07 83.70 305.00
  Q 83.80 304.49 83.40 304.16
  C 78.77 300.39 75.52 295.37 78.84 289.85
  C 82.52 283.72 88.80 285.09 93.40 289.10
  Q 94.24 289.83 94.99 289.01
  L 96.53 287.33
  Q 97.32 286.46 96.43 285.70
  Q 94.18 283.78 92.05 281.85
  C 90.39 280.34 87.73 279.46 86.41 276.94
  A 0.76 0.76 0.0 0 0 85.28 276.68
  L 66.16 290.92
  Q 65.25 291.60 64.56 290.69
  L 63.72 289.57
  Q 62.96 288.56 64.00 287.84
  L 68.60 284.61
  A 0.61 0.60 37.4 0 0 68.45 283.55
  C 62.80 281.51 58.26 273.68 63.46 268.72
  C 69.58 262.88 75.61 268.26 78.69 273.70
  Q 79.23 274.66 78.35 275.32
  L 77.36 276.06
  Q 76.44 276.75 75.86 275.75
  C 74.04 272.65 70.58 267.43 66.25 271.14
  C 60.95 275.69 70.16 283.74 74.53 280.28
  Q 78.69 276.97 82.84 273.94
  A 1.01 1.00 -36.4 0 0 83.06 272.53
  L 70.73 255.91
  Q 70.42 255.48 69.99 255.80
  L 50.94 270.00
  A 1.45 1.45 0.0 0 1 48.93 269.73
  L 48.38 269.02
  Q 47.51 267.91 48.64 267.07
  L 67.86 252.76
  A 0.56 0.56 0.0 0 0 67.95 251.94
  L 66.32 250.08
  Q 65.47 249.11 66.57 248.43
  L 67.44 247.89
  A 1.20 1.18 -36.4 0 1 68.96 248.11
  L 70.30 249.63
  Q 70.75 250.13 71.06 249.54
  C 73.95 244.15 80.14 243.28 84.49 247.68
  C 90.86 254.15 91.46 264.25 87.97 272.41
  A 1.43 1.43 0.0 0 0 88.33 274.02
  Q 96.58 281.40 104.95 289.09
  Q 108.76 292.60 113.09 295.24
  Q 125.14 302.60 136.90 309.71
  Q 138.01 310.38 137.42 311.54
  L 137.05 312.26
  A 1.19 1.19 0.0 0 1 135.30 312.69
  L 132.96 311.04
  A 0.83 0.82 -56.7 0 0 131.79 311.29
  L 119.30 331.77
  Q 118.81 332.58 117.98 332.12
  L 116.29 331.18
  Q 115.52 330.75 115.98 330.01
  L 128.74 309.22
  Q 129.06 308.70 128.53 308.39
  L 122.42 304.87
  Q 121.82 304.53 121.46 305.12
  L 109.12 325.37
  Q 108.51 326.37 107.49 325.79
  L 106.28 325.08
  Q 105.27 324.51 105.88 323.52
  L 109.31 318.02
  Q 109.63 317.50 109.04 317.35
  Z
  M 85.49 269.49
  C 88.04 262.62 87.21 255.10 81.60 249.88
  A 4.67 4.66 47.7 0 0 75.60 249.59
  L 75.04 250.02
  Q 72.16 252.21 74.31 255.13
  L 84.93 269.57
  Q 85.29 270.05 85.49 269.49
  Z
  M 101.88 305.96
  Q 101.39 305.95 101.32 306.44
  C 100.56 312.18 106.57 315.01 111.45 313.70
  A 1.39 1.37 -81.3 0 0 112.27 313.09
  L 118.19 303.45
  Q 118.77 302.50 117.81 301.93
  L 111.72 298.32
  Q 110.76 297.75 110.62 298.85
  C 110.04 303.75 107.08 306.06 101.88 305.96
  Z"
/>
<path fill="#b6292f" d="
  M 319.82 288.90
  C 317.61 297.08 310.40 299.81 303.08 295.39
  Q 302.27 294.89 302.68 294.03
  C 304.76 289.73 304.12 285.61 298.41 285.57
  Q 297.84 285.57 297.53 286.04
  Q 295.90 288.50 293.34 289.95
  A 0.83 0.82 56.8 0 0 293.09 291.16
  L 306.98 310.02
  Q 307.82 311.15 306.71 312.00
  L 305.87 312.65
  Q 304.85 313.44 304.08 312.40
  L 297.11 302.88
  Q 296.61 302.20 295.93 302.69
  L 290.43 306.69
  Q 289.78 307.16 290.25 307.81
  C 290.83 308.61 291.99 309.73 291.86 310.88
  C 291.39 315.13 284.34 312.89 282.87 310.64
  A 2.08 2.08 0.0 0 1 283.37 307.83
  L 293.99 299.98
  Q 294.69 299.47 294.17 298.78
  L 290.25 293.50
  Q 289.65 292.68 288.82 293.28
  Q 284.50 296.40 279.88 299.92
  C 278.41 301.04 277.44 303.09 274.83 303.80
  A 0.85 0.85 0.0 0 0 274.28 304.98
  L 284.37 326.41
  Q 284.87 327.48 283.79 327.96
  L 282.46 328.55
  Q 281.41 329.02 280.95 327.97
  L 278.76 322.97
  A 0.72 0.71 -40.8 0 0 277.50 322.88
  C 273.64 329.04 263.34 330.83 260.90 322.04
  C 259.27 316.16 264.87 312.40 270.01 310.85
  A 1.37 1.36 -16.3 0 1 271.72 311.78
  L 271.95 312.59
  Q 272.32 313.86 271.03 314.15
  Q 267.65 314.90 265.42 317.16
  C 263.36 319.27 264.64 323.08 267.08 324.30
  C 270.95 326.22 277.74 320.46 275.71 316.37
  Q 273.29 311.49 271.01 306.56
  A 0.84 0.84 0.0 0 0 269.89 306.16
  L 251.34 314.87
  A 0.84 0.84 0.0 0 0 250.94 315.98
  L 261.01 337.43
  Q 261.47 338.42 260.48 338.88
  L 259.00 339.57
  A 1.04 1.03 64.9 0 1 257.63 339.07
  L 247.46 317.27
  Q 247.23 316.79 246.75 317.00
  L 244.08 318.16
  Q 243.51 318.41 243.15 317.90
  Q 242.45 316.88 242.34 315.67
  A 0.61 0.60 87.4 0 1 242.94 315.01
  Q 244.03 315.00 244.80 314.27
  Q 245.21 313.88 244.81 313.48
  C 238.68 307.56 241.89 301.39 248.56 298.48
  C 256.09 295.19 264.48 297.07 271.14 301.60
  A 0.82 0.82 0.0 0 0 272.10 301.57
  C 280.52 295.22 289.94 289.32 297.33 281.84
  Q 301.68 277.44 305.95 272.97
  C 313.24 265.33 318.93 256.11 324.96 247.46
  Q 325.51 246.66 326.29 247.24
  L 327.46 248.11
  A 0.96 0.96 0.0 0 1 327.65 249.46
  L 325.85 251.84
  A 0.91 0.90 36.0 0 0 326.06 253.13
  L 345.39 266.59
  Q 346.34 267.24 345.75 268.23
  L 345.03 269.43
  Q 344.37 270.54 343.32 269.79
  L 335.25 264.05
  A 0.71 0.71 0.0 0 0 334.25 264.23
  L 329.19 271.67
  Q 328.81 272.22 329.38 272.57
  Q 330.39 273.17 331.02 273.98
  A 2.36 2.35 -39.6 0 1 330.71 277.21
  C 329.21 278.52 321.71 279.72 322.57 275.78
  C 322.72 275.11 323.37 274.48 323.68 273.72
  A 0.69 0.69 0.0 0 0 323.43 272.91
  L 315.48 267.34
  Q 315.32 267.22 315.19 267.38
  L 310.63 273.26
  Q 310.52 273.40 310.65 273.53
  L 327.70 290.29
  Q 328.69 291.26 327.69 292.21
  L 326.91 292.96
  A 1.35 1.34 -43.9 0 1 325.01 292.93
  L 320.84 288.63
  Q 320.10 287.87 319.82 288.90
  Z
  M 331.8477 262.1200
  A 0.33 0.33 0.0 0 0 331.7667 261.6604
  L 323.5097 255.8787
  A 0.33 0.33 0.0 0 0 323.0501 255.9598
  L 317.5323 263.8400
  A 0.33 0.33 0.0 0 0 317.6133 264.2996
  L 325.8703 270.0813
  A 0.33 0.33 0.0 0 0 326.3299 270.0002
  L 331.8477 262.1200
  Z
  M 307.38 293.62
  C 313.25 295.52 317.19 290.64 316.91 285.29
  A 1.16 1.15 -69.2 0 0 316.56 284.51
  L 308.05 276.17
  A 0.46 0.45 -45.4 0 0 307.41 276.18
  L 301.68 281.96
  A 0.39 0.39 0.0 0 0 301.79 282.58
  C 306.12 284.66 309.33 287.71 307.04 292.86
  Q 306.78 293.43 307.38 293.62
  Z
  M 266.99 302.86
  C 260.52 299.85 254.18 298.61 247.71 302.83
  Q 243.92 305.29 245.99 309.32
  L 246.37 310.06
  A 3.29 3.29 0.0 0 0 250.68 311.53
  L 266.99 303.89
  Q 268.10 303.37 266.99 302.86
  Z"
/>
<path fill="#b6292f" d="
  M 346.31 270.80
  C 349.51 265.59 355.06 263.80 360.76 264.18
  Q 361.52 264.24 361.51 264.99
  L 361.49 266.53
  Q 361.47 267.30 360.70 267.29
  C 356.32 267.20 352.05 268.30 349.47 272.07
  Q 348.66 273.26 347.30 272.78
  L 346.96 272.66
  Q 345.49 272.14 346.31 270.80
  Z"
/>
<path fill="#b6292f" d="
  M 181.85 324.54
  L 181.28 330.97
  A 0.67 0.67 0.0 0 1 180.49 331.57
  C 177.69 331.04 173.92 330.74 171.40 332.30
  C 168.58 334.06 168.29 337.99 170.52 340.32
  C 171.96 341.82 174.16 342.39 176.23 342.63
  A 0.58 0.58 0.0 0 0 176.87 342.12
  C 177.79 333.73 188.72 340.73 181.88 345.49
  Q 181.38 345.83 181.66 346.37
  L 183.49 349.86
  Q 184.18 351.18 182.77 351.66
  L 182.33 351.82
  Q 180.81 352.34 180.22 350.84
  L 178.69 346.91
  A 1.74 1.73 -11.9 0 0 176.99 345.81
  C 170.46 346.09 165.34 342.31 165.52 335.94
  C 165.72 329.02 171.35 327.76 177.02 327.91
  Q 177.97 327.93 177.98 326.99
  L 178.03 324.45
  Q 178.04 323.57 177.17 323.48
  Q 172.46 322.98 167.55 322.54
  C 165.31 322.34 163.74 321.32 161.73 320.50
  Q 160.59 320.04 160.28 321.23
  L 158.77 326.97
  A 0.71 0.71 0.0 0 1 157.88 327.47
  Q 154.95 326.58 151.75 326.06
  C 144.36 324.86 143.06 335.96 151.76 337.54
  A 0.79 0.79 0.0 0 0 152.69 336.88
  C 153.65 330.09 164.54 336.65 156.87 341.50
  Q 156.18 341.93 156.41 342.72
  L 157.47 346.24
  Q 157.87 347.55 156.51 347.68
  L 155.55 347.78
  Q 154.44 347.89 154.20 346.81
  L 153.02 341.56
  Q 152.92 341.12 152.47 341.06
  Q 148.15 340.48 145.11 337.89
  C 139.03 332.71 142.07 322.54 150.63 322.67
  Q 153.20 322.72 155.20 323.32
  Q 155.72 323.49 155.91 322.96
  L 157.03 319.74
  Q 157.20 319.27 156.72 319.13
  L 144.84 315.72
  Q 143.75 315.41 144.07 314.33
  L 144.33 313.42
  Q 144.68 312.24 145.86 312.58
  Q 156.56 315.65 167.78 318.91
  Q 168.88 319.23 171.64 319.50
  Q 185.70 320.91 200.02 322.37
  A 0.55 0.55 0.0 0 0 200.52 321.50
  C 195.92 315.18 201.22 309.07 207.74 308.31
  C 216.40 307.31 223.61 311.55 228.96 317.97
  Q 229.25 318.32 229.70 318.27
  L 235.26 317.70
  A 0.87 0.86 -4.1 0 1 236.21 318.52
  L 236.29 320.21
  Q 236.33 321.00 235.54 321.03
  L 232.45 321.16
  A 0.80 0.79 85.0 0 0 231.70 322.06
  L 234.84 346.02
  Q 234.96 346.93 234.05 346.99
  L 232.01 347.12
  Q 231.23 347.17 231.13 346.39
  L 229.37 332.97
  A 0.88 0.87 81.2 0 0 228.35 332.22
  C 225.23 332.77 217.91 332.60 217.14 336.77
  C 216.46 340.44 221.32 344.17 224.12 345.63
  Q 225.06 346.13 224.47 347.01
  L 223.81 347.98
  A 1.27 1.26 31.7 0 1 222.13 348.37
  C 217.88 345.94 213.25 341.99 213.46 336.89
  C 213.75 330.15 222.67 329.35 228.61 328.99
  Q 228.86 328.97 228.82 328.73
  L 227.90 322.25
  Q 227.85 321.91 227.50 321.95
  L 205.85 324.84
  Q 205.35 324.90 205.42 325.40
  L 208.60 349.44
  Q 208.72 350.34 207.82 350.45
  L 205.96 350.67
  Q 205.02 350.78 204.90 349.84
  L 201.79 326.27
  Q 201.73 325.80 201.25 325.78
  L 196.86 325.67
  Q 196.38 325.66 196.33 326.15
  L 194.03 349.96
  Q 193.94 350.88 193.03 350.79
  L 191.00 350.59
  Q 190.25 350.51 190.32 349.75
  L 192.70 325.51
  Q 192.75 325.01 192.25 324.96
  L 182.58 323.95
  Q 181.91 323.88 181.85 324.54
  Z
  M 225.10 318.51
  C 220.25 313.39 213.77 310.20 206.52 312.16
  Q 202.49 313.24 202.74 317.41
  L 202.76 317.80
  Q 203.01 321.87 207.05 321.33
  L 224.95 318.93
  A 0.25 0.25 0.0 0 0 225.10 318.51
  Z"
/>
</svg>
