<svg xmlns="http://www.w3.org/2000/svg" width="638" height="1101">
  <path d="M307 917c-79 45-158 92-238 135l-66 35c-5 3-4 13 1 14 19 3 50-24 66-33l168-99 53-32c4-2 14-11 19-9 6 2 3 35 3 41l-1 95c0 8-4 28 1 35 2 4 10 3 11-1 2-11 0-25 0-36l-1-137c82 37 159 94 237 140 19 11 39 25 59 34 7 4 23 4 18-8-1-4-12-6-16-7l-44-26-178-100-51-29c-4-2-15-7-16-11-2-5 12-11 15-13l55-31 165-93 49-27c5-3 17-6 21-10 5-6 1-31 1-39V45c0-10 5-35-1-43-2-4-16-2-20-2 19 17 13 51 13 77l2 198 1 63c0 4 2 19-3 20s-14-6-19-9l-50-30-171-101c-17-10-55-24-62-43-4-13-1-32-1-46l-2-87c0-7 4-41-4-42-12-1-9 32-9 41l1 95c0 13 2 31-4 43-14 23-61 40-84 53-72 43-143 87-216 127-6-33-2-69-1-102L9 91C9 67 0 17 20 1-7-8 0 21 0 38v654c0 14-4 37 1 51 1 4 16 8 20 10l62 35c47 25 94 53 140 80 28 15 59 29 84 49z" style="fill:#e3d3b1;stroke:none"/>
  <path d="M9 359c28-12 53-30 79-45l140-83c22-13 68-29 81-51 11-20 4-60 4-83 0-22-3-46 0-68 0-5 3-24-1-28-5-5-28-1-35-1H60C49 0 26-4 17 2 0 16 9 69 9 89c0 56 1 112-1 168-1 32-6 71 1 102M326 1c-3 4-1 16-1 20l2 58v68c0 10-2 23 3 32 8 16 39 27 54 36l136 81 84 49c4 3 23 17 28 13 5-5 0-28 0-35l-1-107c-1-53 4-108-2-161-1-12 5-37-1-47-10-15-45-8-60-8H343c-4 0-14-2-17 1M13 368c19 19 51 31 75 44l152 87 53 30c8 4 17 11 27 11 19-2 38-18 54-27l111-63 106-59c6-3 33-14 33-22 0-7-26-18-32-21l-103-59-115-65c-16-9-36-26-54-27-10-1-20 7-28 11l-55 32-149 84c-25 13-53 26-75 44m310 539c27-7 54-30 78-44l149-87c20-12 64-28 75-49 8-15 4-43 4-59l1-132 1-118c0-8 6-35-2-40-6-3-29 14-34 18l-104 61-113 67c-15 8-40 17-49 32-5 9-3 22-3 32l-1 68-2 251M7 380l2 245v71c0 9-2 25 2 33 3 6 14 10 20 14l53 31 150 89c24 14 53 36 80 42l-2-246-1-71c0-8 3-23-1-31-3-6-14-10-20-14l-55-34-148-86c-25-15-52-35-80-43m300 537c-20-21-55-34-80-48A10840 10840 0 0 1 21 752c-4-2-15-10-20-6-3 3-1 13-1 17v305c0 4-2 16 2 18 6 3 16-5 21-8l55-31c74-43 160-78 229-130m326-171c-23 2-52 27-72 38a39323 39323 0 0 1-214 121c-4 2-16 7-16 12 0 4 12 9 15 11 17 11 35 20 52 30 59 32 116 67 175 99 15 8 45 34 62 31 5-1 3-14 3-18V760c0-5 2-15-5-14M323 925l1 130c0 9-5 39 1 45 4 3 16 1 20 1h276c-15-13-36-22-53-32l-114-68c-41-24-86-61-131-76M15 1101h273c6 0 17 2 22-1s2-27 2-33l1-102c0-5 3-36-3-38-5-1-15 8-20 10l-52 31-149 88c-22 13-57 26-74 45z" style="fill:#fff;stroke:none"/>
</svg>
