<?xml version="1.0" encoding="UTF-8" standalone="no"?>
<!DOCTYPE svg PUBLIC "-//W3C//DTD SVG 1.1//EN" "http://www.w3.org/Graphics/SVG/1.1/DTD/svg11.dtd">
<svg xmlns="http://www.w3.org/2000/svg" version="1.1" viewBox="0 0 400 400">
<path fill="#fff000" d="M 334.97,200.00 A 134.97 134.97 0.0 0 1 200.00,334.97 A 134.97 134.97 0.0 0 1 65.03,200.00 A 134.97 134.97 0.0 0 1 200.00,65.03 A 134.97 134.97 0.0 0 1 334.97,200.00 ZM 190.39,213.03 Q 189.48,211.25 190.94,208.94 Q 192.64,206.24 193.70,202.59 Q 194.51,199.82 194.71,195.82 Q 195.39,182.36 193.50,172.25 Q 191.49,161.47 188.97,150.80 Q 186.08,138.60 175.19,132.55 Q 167.99,128.55 160.00,129.50 Q 154.48,130.16 150.25,133.31 Q 146.56,136.05 144.02,141.22 Q 136.51,156.51 147.05,171.72 Q 148.45,173.74 149.62,175.90 Q 151.23,178.87 149.01,180.42 Q 147.89,181.20 145.31,181.40 Q 123.69,183.02 102.31,183.99 A 0.57,0.57 -8.8 0 0 101.78,184.71 L 110.92,216.96 A 0.67,0.65 -8.5 0 0 111.57,217.43 Q 141.79,217.04 172.00,216.54 Q 174.11,216.51 175.42,217.71 Q 176.87,219.05 176.14,220.73 Q 175.41,222.42 172.81,222.81 Q 154.54,225.56 135.31,228.39 A 0.51,0.50 -17.2 0 0 134.92,229.11 L 149.83,258.99 A 0.72,0.72 73.0 0 0 150.56,259.38 Q 174.04,256.76 197.50,253.96 Q 200.78,253.57 202.19,255.81 Q 215.29,276.60 229.16,297.08 A 1.00,0.99 44.2 0 0 230.82,297.06 Q 264.79,243.63 297.35,189.33 Q 298.84,186.85 298.93,186.50 Q 299.30,184.96 298.19,183.06 Q 287.47,164.80 279.01,152.16 Q 273.06,143.27 267.56,135.77 Q 258.63,123.55 248.35,112.40 Q 242.81,106.40 235.58,103.41 Q 227.99,100.28 220.62,101.72 Q 210.24,103.73 206.76,113.67 Q 204.57,119.92 205.81,127.97 Q 206.94,135.24 210.29,141.91 Q 211.90,145.12 212.60,146.21 Q 213.85,148.16 215.75,150.00 Q 220.93,155.01 219.62,160.95 Q 219.48,161.58 215.37,170.65 Q 205.97,191.36 196.56,212.06 Q 195.50,214.41 193.40,214.61 Q 191.30,214.82 190.39,213.03 Z"/>
<path fill="#b6292f" d="M 193.40,214.61 Q 195.50,214.41 196.56,212.06 Q 205.97,191.36 215.37,170.65 Q 219.48,161.58 219.62,160.95 Q 220.93,155.01 215.75,150.00 Q 213.85,148.16 212.60,146.21 Q 211.90,145.12 210.29,141.91 Q 206.94,135.24 205.81,127.97 Q 204.57,119.92 206.76,113.67 Q 210.24,103.73 220.62,101.72 Q 227.99,100.28 235.58,103.41 Q 242.81,106.40 248.35,112.40 Q 258.63,123.55 267.56,135.77 Q 273.06,143.27 279.01,152.16 Q 287.47,164.80 298.19,183.06 Q 299.30,184.96 298.93,186.50 Q 298.84,186.85 297.35,189.33 Q 264.79,243.63 230.82,297.06 A 1.00,0.99 44.2 0 1 229.16,297.08 Q 215.29,276.60 202.19,255.81 Q 200.78,253.57 197.50,253.96 Q 174.04,256.76 150.56,259.38 A 0.72,0.72 73.0 0 1 149.83,258.99 L 134.92,229.11 A 0.51,0.50 -17.2 0 1 135.31,228.39 Q 154.54,225.56 172.81,222.81 Q 175.41,222.42 176.14,220.73 Q 176.87,219.05 175.42,217.71 Q 174.11,216.51 172.00,216.54 Q 141.79,217.04 111.57,217.43 A 0.67,0.65 -8.5 0 1 110.92,216.96 L 101.78,184.71 A 0.57,0.57 -8.8 0 1 102.31,183.99 Q 123.69,183.02 145.31,181.40 Q 147.89,181.20 149.01,180.42 Q 151.23,178.87 149.62,175.90 Q 148.45,173.74 147.05,171.72 Q 136.51,156.51 144.02,141.22 Q 146.56,136.05 150.25,133.31 Q 154.48,130.16 160.00,129.50 Q 167.99,128.55 175.19,132.55 Q 186.08,138.60 188.97,150.80 Q 191.49,161.47 193.50,172.25 Q 195.39,182.36 194.71,195.82 Q 194.51,199.82 193.70,202.59 Q 192.64,206.24 190.94,208.94 Q 189.48,211.25 190.39,213.03 Q 191.30,214.82 193.40,214.61 ZM 250.13,131.77 Q 244.84,130.03 240.71,133.57 Q 237.94,135.96 236.78,140.35 Q 235.73,144.33 235.90,148.41 Q 236.10,153.19 239.02,159.70 Q 245.08,173.19 254.70,184.57 Q 255.97,186.08 257.42,184.74 Q 260.68,181.72 263.16,177.75 Q 264.98,174.83 267.64,169.96 Q 270.20,165.29 271.81,160.04 A 3.62,3.62 -50.7 0 0 271.53,157.22 Q 265.44,146.13 257.07,136.88 Q 253.43,132.85 250.13,131.77 ZM 177.56,169.19 Q 172.08,165.58 166.19,165.63 Q 163.83,165.66 162.49,166.56 Q 160.76,167.72 160.31,170.01 Q 158.90,177.04 165.70,178.48 Q 172.44,179.91 177.58,176.07 Q 179.52,174.61 179.76,173.02 Q 180.08,170.84 177.56,169.19 ZM 212.65,255.79 Q 215.03,257.19 216.82,256.18 Q 217.76,255.65 219.16,253.33 Q 235.26,226.76 250.83,199.88 Q 253.37,195.50 250.42,193.40 Q 247.60,191.40 245.80,194.35 Q 229.50,221.10 213.32,247.11 Q 211.76,249.63 211.11,252.07 Q 210.47,254.51 212.65,255.79 Z"/>
<path fill="#fff000" d="M 257.07,136.88 Q 265.44,146.13 271.53,157.22 A 3.62,3.62 -50.7 0 1 271.81,160.04 Q 270.20,165.29 267.64,169.96 Q 264.98,174.83 263.16,177.75 Q 260.68,181.72 257.42,184.74 Q 255.97,186.08 254.70,184.57 Q 245.08,173.19 239.02,159.70 Q 236.10,153.19 235.90,148.41 Q 235.73,144.33 236.78,140.35 Q 237.94,135.96 240.71,133.57 Q 244.84,130.03 250.13,131.77 Q 253.43,132.85 257.07,136.88 Z"/>
<path fill="#fff000" d="M 177.56,169.19 Q 180.08,170.84 179.76,173.02 Q 179.52,174.61 177.58,176.07 Q 172.44,179.91 165.70,178.48 Q 158.90,177.04 160.31,170.01 Q 160.76,167.72 162.49,166.56 Q 163.83,165.66 166.19,165.63 Q 172.08,165.58 177.56,169.19 Z"/>
<path fill="#fff000" d="M 212.65,255.79 Q 210.47,254.51 211.11,252.07 Q 211.76,249.63 213.32,247.11 Q 229.50,221.10 245.80,194.35 Q 247.60,191.40 250.42,193.40 Q 253.37,195.50 250.83,199.88 Q 235.26,226.76 219.16,253.33 Q 217.76,255.65 216.82,256.18 Q 215.03,257.19 212.65,255.79 Z"/>
</svg>
